<svg id="Love" height="512" viewBox="0 0 64 64" width="512" xmlns="http://www.w3.org/2000/svg"><path d="m3 33h58v28h-58z" fill="#4a80aa"/><path d="m32 3-29 30h58z" fill="#63a1f2"/><path d="m12 11h41v45h-41z" fill="#e4e6f2"/><path d="m3 61v-28l29 17 29-17v28z" fill="#365e7d"/><path d="m46 23.667c0 10.58-14 16.333-14 16.333s-14-6.315-14-16.333a7.63 7.63 0 0 1 14-4.236 7.63 7.63 0 0 1 14 4.236z" fill="#f28dbc"/><path d="m32 43-29 18h58z" fill="#4a80aa"/><path d="m61.72 32.31-7.72-7.99v-13.32a1 1 0 0 0 -1-1h-12.85l-7.43-7.69a1.032 1.032 0 0 0 -1.44 0l-7.43 7.69h-11.85a1 1 0 0 0 -1 1v12.29l-8.72 9.02a.976.976 0 0 0 -.28.69v28a1 1 0 0 0 1 1h58a1 1 0 0 0 1-1v-28a.976.976 0 0 0 -.28-.69zm-7.72-5.12 4.64 4.81h-4.64zm0 6.81h3.32l-3.32 1.94zm-22-29.56 5.37 5.56h-10.74zm-19 7.56h39v25.12l-14.19 8.31-5.28-3.28a1.011 1.011 0 0 0 -1.06 0l-5.28 3.28-13.19-7.73zm-2 14.16v5.84h-5.64zm0 7.84v2.53l-4.32-2.53zm-7 .75 20.26 11.87-20.26 12.58zm2.51 25.25 25.49-15.82 25.49 15.82zm53.49-.8-20.26-12.58 20.26-11.87z"/><path d="m31.589 40.912a1 1 0 0 0 .791.013c.598-.245 14.62-6.136 14.62-17.258a8.63 8.63 0 0 0 -15-5.859 8.63 8.63 0 0 0 -15 5.859c0 10.542 13.993 16.976 14.589 17.245zm-5.952-23.912a6.617 6.617 0 0 1 5.529 2.982 1.038 1.038 0 0 0 1.668 0 6.63 6.63 0 0 1 12.166 3.685c0 8.812-10.76 14.211-12.982 15.233-2.218-1.1-13.018-6.892-13.018-15.233a6.66 6.66 0 0 1 6.637-6.667z"/></svg>